<svg width="48" height="49" viewBox="0 0 48 49" fill="none" xmlns="http://www.w3.org/2000/svg">
<circle cx="24" cy="24.5" r="24" fill="#FFF0E0"/>
<path d="M32.2665 19.5167C32.1819 19.313 32.0201 19.1512 31.8165 19.0667C31.7163 19.024 31.6087 19.0013 31.4998 19H27.3331C27.1121 19 26.9001 19.0878 26.7439 19.2441C26.5876 19.4004 26.4998 19.6123 26.4998 19.8333C26.4998 20.0543 26.5876 20.2663 26.7439 20.4226C26.9001 20.5789 27.1121 20.6667 27.3331 20.6667H29.4915L24.8331 25.325L22.0915 22.575C22.014 22.4969 21.9218 22.4349 21.8203 22.3926C21.7187 22.3503 21.6098 22.3285 21.4998 22.3285C21.3898 22.3285 21.2809 22.3503 21.1793 22.3926C21.0778 22.4349 20.9856 22.4969 20.9081 22.575L15.9081 27.575C15.83 27.6525 15.768 27.7446 15.7257 27.8462C15.6834 27.9477 15.6616 28.0567 15.6616 28.1667C15.6616 28.2767 15.6834 28.3856 15.7257 28.4871C15.768 28.5887 15.83 28.6809 15.9081 28.7583C15.9856 28.8364 16.0778 28.8984 16.1793 28.9407C16.2809 28.9831 16.3898 29.0048 16.4998 29.0048C16.6098 29.0048 16.7187 28.9831 16.8203 28.9407C16.9218 28.8984 17.014 28.8364 17.0915 28.7583L21.4998 24.3417L24.2415 27.0917C24.3189 27.1698 24.4111 27.2318 24.5126 27.2741C24.6142 27.3164 24.7231 27.3382 24.8331 27.3382C24.9431 27.3382 25.0521 27.3164 25.1536 27.2741C25.2551 27.2318 25.3473 27.1698 25.4248 27.0917L30.6665 21.8417V24C30.6665 24.221 30.7543 24.433 30.9105 24.5893C31.0668 24.7455 31.2788 24.8333 31.4998 24.8333C31.7208 24.8333 31.9328 24.7455 32.089 24.5893C32.2453 24.433 32.3331 24.221 32.3331 24V19.8333C32.3318 19.7244 32.3092 19.6169 32.2665 19.5167Z" fill="#FF8600"/>
</svg>
