<svg width="48" height="49" viewBox="0 0 48 49" fill="none" xmlns="http://www.w3.org/2000/svg">
<circle cx="24" cy="24.5" r="24" fill="#E0FAF5"/>
<path d="M26.5001 15.6667C25.1359 15.6678 23.8153 16.1469 22.7678 17.0209C21.7203 17.8948 21.0123 19.1081 20.7667 20.45C20.0487 20.8374 19.4365 21.3945 18.9833 22.0728C18.5301 22.7512 18.2497 23.5301 18.1667 24.3417C17.5465 24.6145 17.0022 25.0344 16.5809 25.5651C16.1597 26.0958 15.8742 26.7212 15.7492 27.3872C15.6242 28.0531 15.6636 28.7395 15.8638 29.3868C16.064 30.0341 16.419 30.6228 16.8981 31.1019C17.3772 31.5811 17.966 31.9361 18.6133 32.1363C19.2606 32.3365 19.9469 32.3758 20.6129 32.2509C21.2788 32.1259 21.9042 31.8404 22.4349 31.4191C22.9656 30.9979 23.3856 30.4536 23.6584 29.8333C24.4676 29.7529 25.2449 29.4764 25.923 29.0277C26.6012 28.579 27.1597 27.9717 27.5501 27.2583C29.0092 27.0243 30.325 26.2452 31.2319 25.0784C32.1387 23.9116 32.569 22.4441 32.4357 20.9724C32.3023 19.5007 31.6154 18.1344 30.5137 17.1496C29.4119 16.1647 27.9775 15.6347 26.5001 15.6667ZM22.3334 28.525C22.3334 28.6083 22.3334 28.6917 22.2751 28.7833C22.1674 29.2123 21.9479 29.6049 21.639 29.9214C21.3301 30.2378 20.9427 30.4666 20.5165 30.5844C20.0903 30.7023 19.6404 30.7049 19.2128 30.5922C18.7852 30.4794 18.3952 30.2553 18.0825 29.9426C17.7698 29.6299 17.5456 29.2399 17.4329 28.8123C17.3201 28.3847 17.3228 27.9348 17.4407 27.5086C17.5585 27.0823 17.7873 26.695 18.1037 26.3861C18.4201 26.0771 18.8128 25.8577 19.2417 25.75L19.4751 25.6667C19.8664 25.5936 20.2696 25.6169 20.6499 25.7347C21.0302 25.8524 21.376 26.0611 21.6575 26.3426C21.939 26.6241 22.1476 26.9699 22.2654 27.3502C22.3832 27.7305 22.4065 28.1337 22.3334 28.525ZM26.5001 25.4667C26.4891 25.5202 26.4752 25.573 26.4584 25.625C26.4226 25.7784 26.3752 25.9288 26.3167 26.075C26.1249 26.5615 25.8212 26.996 25.4304 27.3435C25.0395 27.6909 24.5724 27.9415 24.0667 28.075C24.0667 27.925 24.0667 27.7833 24.0167 27.6333C23.9667 27.4833 24.0167 27.4083 24.0167 27.3C24.0167 27.1917 23.9167 26.9833 23.8667 26.825C23.8167 26.6667 23.8084 26.625 23.7667 26.525C23.6949 26.3662 23.6113 26.213 23.5167 26.0667C23.5167 25.9917 23.4417 25.9083 23.3917 25.8333C23.2435 25.6161 23.0762 25.4125 22.8917 25.225L22.7251 25.0833C22.5854 24.9549 22.4379 24.8352 22.2834 24.725C22.1926 24.6659 22.0979 24.613 22.0001 24.5667C21.8667 24.4819 21.7274 24.4067 21.5834 24.3417C21.4758 24.2956 21.3642 24.2594 21.2501 24.2333C21.1098 24.1764 20.9648 24.1318 20.8167 24.1C20.7001 24.1 20.5751 24.1 20.4501 24.05L19.9417 24C20.0744 23.4952 20.3237 23.0287 20.6696 22.6379C21.0156 22.2471 21.4484 21.9429 21.9334 21.75C22.0763 21.6903 22.2241 21.6429 22.3751 21.6083L22.5417 21.5667C22.7473 21.5235 22.9567 21.5011 23.1667 21.5C24.0508 21.5 24.8986 21.8512 25.5237 22.4763C26.1489 23.1014 26.5001 23.9493 26.5001 24.8333C26.4989 25.0461 26.4766 25.2583 26.4334 25.4667H26.5001ZM28.1667 25.3333C28.1667 25.1667 28.1667 25 28.1667 24.8333C28.1667 23.5073 27.6399 22.2355 26.7023 21.2978C25.7646 20.3601 24.4928 19.8333 23.1667 19.8333C23.0001 19.8333 22.8334 19.8333 22.6667 19.8333C22.9414 19.2155 23.3623 18.6737 23.8932 18.2549C24.424 17.836 25.0488 17.5527 25.7137 17.4293C26.3785 17.3059 27.0633 17.3461 27.7091 17.5465C28.3549 17.747 28.9422 18.1016 29.4204 18.5797C29.8985 19.0578 30.2531 19.6451 30.4535 20.2909C30.654 20.9367 30.6942 21.6216 30.5708 22.2864C30.4474 22.9512 30.164 23.576 29.7452 24.1069C29.3263 24.6377 28.7846 25.0587 28.1667 25.3333Z" fill="#00D5AA"/>
</svg>
