<svg width="17" height="15" viewBox="0 0 17 15" fill="none" xmlns="http://www.w3.org/2000/svg">
<g clip-path="url(#clip0_524_2592)">
<path d="M15.5252 3.46667L12.839 1.00834C12.6615 0.847535 12.4212 0.757263 12.1708 0.757263C11.9204 0.757263 11.6802 0.847535 11.5027 1.00834L1.97962 9.66667L1.11014 13.0833C1.08014 13.2082 1.08117 13.3377 1.11315 13.4622C1.14512 13.5866 1.20724 13.7031 1.29495 13.8029C1.38267 13.9027 1.49377 13.9834 1.62015 14.0392C1.74652 14.0949 1.88497 14.1242 2.02538 14.125C2.09081 14.131 2.15673 14.131 2.22216 14.125L6.01584 13.3333L15.5252 4.68334C15.7018 4.52172 15.801 4.303 15.801 4.07501C15.801 3.84702 15.7018 3.6283 15.5252 3.46667ZM5.55821 12.5833L2.0025 13.2625L2.81249 10.0875L9.93765 3.62501L12.6834 6.12501L5.55821 12.5833ZM13.2966 5.52084L10.5509 3.02084L12.1434 1.57917L14.8433 4.07917L13.2966 5.52084Z" fill="#2E2E2E"/>
</g>
<defs>
<clipPath id="clip0_524_2592">
<rect width="16.4744" height="15" fill="white" transform="translate(0.0253906)"/>
</clipPath>
</defs>
</svg>
