<svg width="25" height="24" viewBox="0 0 25 24" fill="none" xmlns="http://www.w3.org/2000/svg">
<path d="M7.59266 10.51C7.91184 9.56628 8.52784 8.7452 9.35277 8.16386C10.1777 7.58251 11.1694 7.27062 12.1865 7.27266C13.3394 7.27266 14.3817 7.67266 15.2004 8.32732L17.5826 6C16.1309 4.76333 14.2706 4 12.1865 4C8.95976 4 6.18191 5.79866 4.84619 8.43332L7.59266 10.51Z" fill="#EA4335"/>
<path d="M14.9426 16.0086C14.199 16.4773 13.2549 16.7273 12.1866 16.7273C11.1736 16.7293 10.1856 16.4199 9.3625 15.8429C8.5394 15.2658 7.92289 14.4504 7.60026 13.512L4.84424 15.5566C5.52045 16.8941 6.56693 18.0195 7.86482 18.805C9.16272 19.5904 10.66 20.0044 12.1866 19.9999C14.1874 19.9999 16.0989 19.3046 17.5308 18L14.9433 16.0086H14.9426Z" fill="#34A853"/>
<path d="M17.5303 18C19.0277 16.6347 19.9998 14.6027 19.9998 12C19.9998 11.5267 19.9254 11.018 19.8142 10.5453H12.186V13.6367H16.5766C16.3603 14.676 15.7784 15.4807 14.9427 16.0087L17.5303 18Z" fill="#4A90E2"/>
<path d="M7.59996 13.512C7.43307 13.0246 7.34828 12.514 7.34892 12C7.34892 11.4787 7.43419 10.978 7.59246 10.51L4.84599 8.43335C4.28413 9.5418 3.99449 10.763 4.00008 12C4.00008 13.28 4.30365 14.4867 4.84394 15.5567L7.59996 13.512Z" fill="#FBBC05"/>
</svg>
