<svg width="48" height="48" viewBox="0 0 48 48" fill="none" xmlns="http://www.w3.org/2000/svg">
<circle cx="24" cy="24" r="24" fill="#EB3348" fill-opacity="0.08"/>
<path d="M28.4498 18.55C28.2521 18.55 28.0587 18.6087 27.8943 18.7186C27.7298 18.8284 27.6016 18.9846 27.526 19.1673C27.4503 19.3501 27.4305 19.5511 27.4691 19.7451C27.5076 19.9391 27.6029 20.1173 27.7427 20.2571C27.8826 20.397 28.0608 20.4922 28.2547 20.5308C28.4487 20.5694 28.6498 20.5496 28.8325 20.4739C29.0152 20.3982 29.1714 20.27 29.2813 20.1056C29.3912 19.9411 29.4498 19.7478 29.4498 19.55C29.4498 19.2848 29.3445 19.0305 29.1569 18.8429C28.9694 18.6554 28.7151 18.55 28.4498 18.55ZM32.2832 20.5667C32.267 19.8753 32.1375 19.1912 31.8998 18.5417C31.6879 17.986 31.3582 17.4828 30.9332 17.0667C30.5205 16.6395 30.0161 16.3118 29.4582 16.1084C28.8104 15.8635 28.1255 15.731 27.4332 15.7167C26.5498 15.6667 26.2665 15.6667 23.9998 15.6667C21.7332 15.6667 21.4498 15.6667 20.5665 15.7167C19.8741 15.731 19.1893 15.8635 18.5415 16.1084C17.9846 16.3139 17.4806 16.6413 17.0665 17.0667C16.6394 17.4793 16.3117 17.9837 16.1082 18.5417C15.8633 19.1895 15.7308 19.8743 15.7165 20.5667C15.6665 21.45 15.6665 21.7334 15.6665 24C15.6665 26.2667 15.6665 26.55 15.7165 27.4334C15.7308 28.1257 15.8633 28.8106 16.1082 29.4584C16.3117 30.0163 16.6394 30.5207 17.0665 30.9334C17.4806 31.3587 17.9846 31.6861 18.5415 31.8917C19.1893 32.1366 19.8741 32.269 20.5665 32.2834C21.4498 32.3334 21.7332 32.3334 23.9998 32.3334C26.2665 32.3334 26.5498 32.3334 27.4332 32.2834C28.1255 32.269 28.8104 32.1366 29.4582 31.8917C30.0161 31.6882 30.5205 31.3605 30.9332 30.9334C31.36 30.5188 31.6901 30.0152 31.8998 29.4584C32.1375 28.8089 32.267 28.1248 32.2832 27.4334C32.2832 26.55 32.3332 26.2667 32.3332 24C32.3332 21.7334 32.3332 21.45 32.2832 20.5667ZM30.7832 27.3334C30.7771 27.8623 30.6813 28.3864 30.4998 28.8834C30.3668 29.246 30.1531 29.5737 29.8748 29.8417C29.6045 30.1171 29.2775 30.3304 28.9165 30.4667C28.4196 30.6481 27.8955 30.744 27.3665 30.75C26.5332 30.7917 26.2248 30.8 24.0332 30.8C21.8415 30.8 21.5332 30.8 20.6998 30.75C20.1506 30.7603 19.6037 30.6757 19.0832 30.5C18.738 30.3568 18.426 30.144 18.1665 29.875C17.8899 29.6073 17.6789 29.2793 17.5498 28.9167C17.3464 28.4126 17.2335 27.8766 17.2165 27.3334C17.2165 26.5 17.1665 26.1917 17.1665 24C17.1665 21.8084 17.1665 21.5 17.2165 20.6667C17.2202 20.1259 17.319 19.59 17.5082 19.0834C17.6549 18.7316 17.8801 18.4181 18.1665 18.1667C18.4197 17.8802 18.7326 17.6526 19.0832 17.5C19.5911 17.3167 20.1265 17.2209 20.6665 17.2167C21.4998 17.2167 21.8082 17.1667 23.9998 17.1667C26.1915 17.1667 26.4998 17.1667 27.3332 17.2167C27.8621 17.2228 28.3863 17.3186 28.8832 17.5C29.2619 17.6406 29.6017 17.8691 29.8748 18.1667C30.1479 18.4227 30.3613 18.7356 30.4998 19.0834C30.685 19.5908 30.7809 20.1265 30.7832 20.6667C30.8248 21.5 30.8332 21.8084 30.8332 24C30.8332 26.1917 30.8248 26.5 30.7832 27.3334ZM23.9998 19.725C23.1547 19.7267 22.329 19.9788 21.627 20.4495C20.9251 20.9203 20.3785 21.5885 20.0562 22.3698C19.7339 23.1511 19.6504 24.0104 19.8163 24.8391C19.9822 25.6678 20.39 26.4288 20.9882 27.0258C21.5864 27.6229 22.3482 28.0292 23.1772 28.1935C24.0063 28.3578 24.8654 28.2726 25.6461 27.9488C26.4267 27.625 27.0939 27.0771 27.5633 26.3742C28.0327 25.6714 28.2832 24.8452 28.2832 24C28.2843 23.4376 28.1742 22.8805 27.9592 22.3608C27.7442 21.8411 27.4286 21.369 27.0306 20.9717C26.6325 20.5744 26.1598 20.2598 25.6397 20.0458C25.1195 19.8318 24.5622 19.7228 23.9998 19.725ZM23.9998 26.775C23.451 26.775 22.9145 26.6123 22.4581 26.3073C22.0018 26.0024 21.6461 25.569 21.4361 25.062C21.226 24.5549 21.1711 23.9969 21.2782 23.4586C21.3852 22.9203 21.6495 22.4259 22.0376 22.0378C22.4257 21.6497 22.9202 21.3854 23.4585 21.2783C23.9968 21.1713 24.5547 21.2262 25.0618 21.4363C25.5688 21.6463 26.0022 22.002 26.3072 22.4583C26.6121 22.9147 26.7748 23.4512 26.7748 24C26.7748 24.3644 26.7031 24.7253 26.5636 25.062C26.4241 25.3986 26.2197 25.7046 25.9621 25.9622C25.7044 26.2199 25.3985 26.4243 25.0618 26.5638C24.7251 26.7032 24.3643 26.775 23.9998 26.775Z" fill="#EB3348"/>
</svg>
