<svg width="48" height="48" viewBox="0 0 48 48" fill="none" xmlns="http://www.w3.org/2000/svg">
<circle cx="24" cy="24" r="24" fill="#2764AC" fill-opacity="0.08"/>
<path d="M31.0585 15.6667H16.9418C16.7831 15.6645 16.6255 15.6936 16.4781 15.7523C16.3307 15.8109 16.1962 15.8981 16.0825 16.0088C15.9687 16.1194 15.8779 16.2514 15.8151 16.3972C15.7524 16.543 15.719 16.6997 15.7168 16.8583V31.1417C15.719 31.3004 15.7524 31.4571 15.8151 31.6028C15.8779 31.7486 15.9687 31.8806 16.0825 31.9913C16.1962 32.1019 16.3307 32.1891 16.4781 32.2478C16.6255 32.3065 16.7831 32.3356 16.9418 32.3333H31.0585C31.2171 32.3356 31.3747 32.3065 31.5222 32.2478C31.6696 32.1891 31.804 32.1019 31.9178 31.9913C32.0316 31.8806 32.1224 31.7486 32.1851 31.6028C32.2479 31.4571 32.2813 31.3004 32.2835 31.1417V16.8583C32.2813 16.6997 32.2479 16.543 32.1851 16.3972C32.1224 16.2514 32.0316 16.1194 31.9178 16.0088C31.804 15.8981 31.6696 15.8109 31.5222 15.7523C31.3747 15.6936 31.2171 15.6645 31.0585 15.6667ZM20.7418 29.6167H18.2418V22.1167H20.7418V29.6167ZM19.4918 21.0667C19.147 21.0667 18.8164 20.9297 18.5726 20.6859C18.3288 20.4421 18.1918 20.1115 18.1918 19.7667C18.1918 19.4219 18.3288 19.0912 18.5726 18.8474C18.8164 18.6036 19.147 18.4667 19.4918 18.4667C19.6749 18.4459 19.8603 18.4641 20.0359 18.5199C20.2114 18.5758 20.3732 18.6681 20.5107 18.7908C20.6481 18.9135 20.7581 19.0639 20.8334 19.2321C20.9086 19.4003 20.9476 19.5824 20.9476 19.7667C20.9476 19.9509 20.9086 20.1331 20.8334 20.3013C20.7581 20.4694 20.6481 20.6198 20.5107 20.7425C20.3732 20.8653 20.2114 20.9576 20.0359 21.0134C19.8603 21.0693 19.6749 21.0874 19.4918 21.0667ZM29.7585 29.6167H27.2585V25.5917C27.2585 24.5833 26.9001 23.925 25.9918 23.925C25.7107 23.9271 25.437 24.0152 25.2075 24.1777C24.978 24.3401 24.8039 24.5689 24.7085 24.8333C24.6433 25.0292 24.615 25.2355 24.6251 25.4417V29.6083H22.1251C22.1251 29.6083 22.1251 22.7917 22.1251 22.1083H24.6251V23.1667C24.8522 22.7726 25.1826 22.4479 25.5805 22.2277C25.9784 22.0074 26.4289 21.8999 26.8835 21.9167C28.5501 21.9167 29.7585 22.9917 29.7585 25.3V29.6167Z" fill="#2764AC"/>
</svg>
