<svg width="48" height="49" viewBox="0 0 48 49" fill="none" xmlns="http://www.w3.org/2000/svg">
<circle cx="24" cy="24.5" r="24" fill="#EFF2FE"/>
<path d="M31.4998 22.75H30.6665V21.9167C30.6665 21.6956 30.5787 21.4837 30.4224 21.3274C30.2661 21.1711 30.0542 21.0833 29.8332 21.0833C29.6122 21.0833 29.4002 21.1711 29.2439 21.3274C29.0876 21.4837 28.9998 21.6956 28.9998 21.9167V22.75H28.1665C27.9455 22.75 27.7335 22.8378 27.5772 22.9941C27.421 23.1503 27.3332 23.3623 27.3332 23.5833C27.3332 23.8043 27.421 24.0163 27.5772 24.1726C27.7335 24.3289 27.9455 24.4167 28.1665 24.4167H28.9998V25.25C28.9998 25.471 29.0876 25.683 29.2439 25.8392C29.4002 25.9955 29.6122 26.0833 29.8332 26.0833C30.0542 26.0833 30.2661 25.9955 30.4224 25.8392C30.5787 25.683 30.6665 25.471 30.6665 25.25V24.4167H31.4998C31.7209 24.4167 31.9328 24.3289 32.0891 24.1726C32.2454 24.0163 32.3332 23.8043 32.3332 23.5833C32.3332 23.3623 32.2454 23.1503 32.0891 22.9941C31.9328 22.8378 31.7209 22.75 31.4998 22.75ZM25.0832 24.1833C25.5278 23.7984 25.8845 23.3224 26.1289 22.7875C26.3733 22.2526 26.4998 21.6714 26.4998 21.0833C26.4998 19.9783 26.0609 18.9184 25.2794 18.137C24.498 17.3556 23.4382 16.9167 22.3332 16.9167C21.2281 16.9167 20.1683 17.3556 19.3869 18.137C18.6055 18.9184 18.1665 19.9783 18.1665 21.0833C18.1665 21.6714 18.293 22.2526 18.5374 22.7875C18.7819 23.3224 19.1385 23.7984 19.5832 24.1833C18.4166 24.7116 17.4269 25.5646 16.7323 26.6404C16.0377 27.7163 15.6677 28.9694 15.6665 30.25C15.6665 30.471 15.7543 30.683 15.9106 30.8392C16.0669 30.9955 16.2788 31.0833 16.4998 31.0833C16.7209 31.0833 16.9328 30.9955 17.0891 30.8392C17.2454 30.683 17.3332 30.471 17.3332 30.25C17.3332 28.9239 17.86 27.6521 18.7976 26.7145C19.7353 25.7768 21.0071 25.25 22.3332 25.25C23.6593 25.25 24.931 25.7768 25.8687 26.7145C26.8064 27.6521 27.3332 28.9239 27.3332 30.25C27.3332 30.471 27.421 30.683 27.5772 30.8392C27.7335 30.9955 27.9455 31.0833 28.1665 31.0833C28.3875 31.0833 28.5995 30.9955 28.7558 30.8392C28.912 30.683 28.9998 30.471 28.9998 30.25C28.9986 28.9694 28.6286 27.7163 27.934 26.6404C27.2395 25.5646 26.2497 24.7116 25.0832 24.1833ZM22.3332 23.5833C21.8387 23.5833 21.3554 23.4367 20.9442 23.162C20.5331 22.8873 20.2127 22.4968 20.0235 22.04C19.8343 21.5832 19.7847 21.0806 19.8812 20.5956C19.9777 20.1106 20.2158 19.6652 20.5654 19.3156C20.915 18.9659 21.3605 18.7278 21.8454 18.6314C22.3304 18.5349 22.8331 18.5844 23.2899 18.7736C23.7467 18.9628 24.1371 19.2833 24.4118 19.6944C24.6865 20.1055 24.8332 20.5889 24.8332 21.0833C24.8332 21.7464 24.5698 22.3822 24.1009 22.8511C23.6321 23.3199 22.9962 23.5833 22.3332 23.5833Z" fill="#7B91F7"/>
</svg>
